<svg width="14" height="13" viewBox="0 0 14 13" fill="none" xmlns="http://www.w3.org/2000/svg">
<path fill-rule="evenodd" clip-rule="evenodd" d="M0.800049 1.89998C0.800049 1.42259 0.989691 0.964749 1.32726 0.627183C1.66482 0.289618 2.12266 0.0999756 2.60005 0.0999756H6.20005C6.43874 0.0999756 6.66766 0.194797 6.83644 0.36358C7.00523 0.532362 7.10005 0.761281 7.10005 0.999975C7.10005 1.23867 7.00523 1.46759 6.83644 1.63637C6.66766 1.80515 6.43874 1.89998 6.20005 1.89998H2.60005V10.9H11.6V7.29997C11.6 7.06128 11.6949 6.83236 11.8637 6.66358C12.0324 6.4948 12.2614 6.39997 12.5 6.39997C12.7387 6.39997 12.9677 6.4948 13.1364 6.66358C13.3052 6.83236 13.4 7.06128 13.4 7.29997V10.9C13.4 11.3774 13.2104 11.8352 12.8728 12.1728C12.5353 12.5103 12.0774 12.7 11.6 12.7H2.60005C2.12266 12.7 1.66482 12.5103 1.32726 12.1728C0.989691 11.8352 0.800049 11.3774 0.800049 10.9V1.89998Z" fill="white"/>
</svg>
